<svg width="454" height="454" viewBox="0 0 454 454" fill="none" xmlns="http://www.w3.org/2000/svg">
<path d="M424.439 0H29.2365C13.0896 0 0 13.0896 0 29.2365V424.439C0 440.586 13.0896 453.676 29.2365 453.676H424.439C440.586 453.676 453.676 440.586 453.676 424.439V29.2365C453.676 13.0896 440.586 0 424.439 0Z" fill="#76309B"/>
<path d="M326.547 255.073L249.143 332.481C246.895 334.729 244.249 335.862 241.206 335.882C238.183 335.882 235.545 334.758 233.295 332.51L117.421 216.636C115.055 214.27 113.901 211.606 113.959 208.642C114.036 205.654 115.199 203.036 117.45 200.788L194.85 123.384C197.098 121.136 199.647 119.982 202.498 119.922C205.388 119.867 207.957 120.963 210.205 123.211C212.22 125.226 213.189 127.668 213.112 130.535C213.074 133.406 211.93 135.965 209.682 138.213L140.186 207.709L183.368 250.887L233.467 200.788C235.833 198.422 238.412 197.239 241.202 197.239C244.032 197.239 246.513 198.306 248.645 200.438C250.778 202.571 251.845 205.052 251.845 207.881C251.845 210.672 250.663 213.251 248.3 215.616L198.197 265.719L242.222 309.74L311.718 240.244C313.966 237.996 316.516 236.844 319.367 236.786C322.254 236.726 324.705 237.704 326.719 239.722C328.967 241.97 330.064 244.538 330.009 247.424C329.949 250.275 328.795 252.825 326.547 255.073Z" fill="white"/>
</svg>
